<mxfile host="app.diagrams.net" modified="2022-11-25T04:57:39.108Z" agent="5.0 (Windows NT 10.0; Win64; x64) AppleWebKit/537.36 (KHTML, like Gecko) Chrome/107.0.0.0 Safari/537.36" etag="xjjSteUZHfS3Ucuu9cgq" version="20.4.2" type="github">
  <diagram id="3-aWnPjAAtXSHg9XjmKd" name="페이지-1">
    <mxGraphModel dx="1433" dy="922" grid="1" gridSize="10" guides="1" tooltips="1" connect="1" arrows="1" fold="1" page="1" pageScale="1" pageWidth="1169" pageHeight="827" math="0" shadow="0">
      <root>
        <mxCell id="0" />
        <mxCell id="1" parent="0" />
        <mxCell id="oyet4yBadCuPjKH_klJJ-1" value="" style="rounded=0;whiteSpace=wrap;html=1;" vertex="1" parent="1">
          <mxGeometry x="480" y="120" width="200" height="80" as="geometry" />
        </mxCell>
        <mxCell id="oyet4yBadCuPjKH_klJJ-2" value="" style="ellipse;shape=cloud;whiteSpace=wrap;html=1;" vertex="1" parent="1">
          <mxGeometry x="505" y="10" width="160" height="80" as="geometry" />
        </mxCell>
        <mxCell id="oyet4yBadCuPjKH_klJJ-9" style="edgeStyle=orthogonalEdgeStyle;rounded=0;orthogonalLoop=1;jettySize=auto;html=1;entryX=0;entryY=0.5;entryDx=0;entryDy=0;" edge="1" parent="1" source="oyet4yBadCuPjKH_klJJ-3" target="oyet4yBadCuPjKH_klJJ-1">
          <mxGeometry relative="1" as="geometry" />
        </mxCell>
        <mxCell id="oyet4yBadCuPjKH_klJJ-12" style="edgeStyle=orthogonalEdgeStyle;rounded=0;orthogonalLoop=1;jettySize=auto;html=1;entryX=0;entryY=0.5;entryDx=0;entryDy=0;" edge="1" parent="1" source="oyet4yBadCuPjKH_klJJ-3" target="oyet4yBadCuPjKH_klJJ-6">
          <mxGeometry relative="1" as="geometry" />
        </mxCell>
        <mxCell id="oyet4yBadCuPjKH_klJJ-13" style="edgeStyle=orthogonalEdgeStyle;rounded=0;orthogonalLoop=1;jettySize=auto;html=1;entryX=0;entryY=0.5;entryDx=0;entryDy=0;" edge="1" parent="1" source="oyet4yBadCuPjKH_klJJ-3" target="oyet4yBadCuPjKH_klJJ-7">
          <mxGeometry relative="1" as="geometry">
            <Array as="points">
              <mxPoint x="380" y="260" />
              <mxPoint x="380" y="560" />
            </Array>
          </mxGeometry>
        </mxCell>
        <mxCell id="oyet4yBadCuPjKH_klJJ-3" value="REHL8.6" style="rounded=0;whiteSpace=wrap;html=1;" vertex="1" parent="1">
          <mxGeometry x="80" y="200" width="200" height="120" as="geometry" />
        </mxCell>
        <mxCell id="oyet4yBadCuPjKH_klJJ-14" style="edgeStyle=orthogonalEdgeStyle;rounded=0;orthogonalLoop=1;jettySize=auto;html=1;entryX=1;entryY=0.5;entryDx=0;entryDy=0;" edge="1" parent="1" source="oyet4yBadCuPjKH_klJJ-4" target="oyet4yBadCuPjKH_klJJ-1">
          <mxGeometry relative="1" as="geometry">
            <Array as="points">
              <mxPoint x="790" y="260" />
              <mxPoint x="790" y="160" />
            </Array>
          </mxGeometry>
        </mxCell>
        <mxCell id="oyet4yBadCuPjKH_klJJ-15" style="edgeStyle=orthogonalEdgeStyle;rounded=0;orthogonalLoop=1;jettySize=auto;html=1;entryX=1;entryY=0.5;entryDx=0;entryDy=0;" edge="1" parent="1" source="oyet4yBadCuPjKH_klJJ-4" target="oyet4yBadCuPjKH_klJJ-6">
          <mxGeometry relative="1" as="geometry">
            <Array as="points">
              <mxPoint x="790" y="260" />
              <mxPoint x="790" y="440" />
            </Array>
          </mxGeometry>
        </mxCell>
        <mxCell id="oyet4yBadCuPjKH_klJJ-4" value="RHEL7.4" style="rounded=0;whiteSpace=wrap;html=1;" vertex="1" parent="1">
          <mxGeometry x="890" y="200" width="200" height="120" as="geometry" />
        </mxCell>
        <mxCell id="oyet4yBadCuPjKH_klJJ-6" value="" style="rounded=0;whiteSpace=wrap;html=1;" vertex="1" parent="1">
          <mxGeometry x="480" y="400" width="200" height="80" as="geometry" />
        </mxCell>
        <mxCell id="oyet4yBadCuPjKH_klJJ-7" value="" style="rounded=0;whiteSpace=wrap;html=1;" vertex="1" parent="1">
          <mxGeometry x="480" y="520" width="200" height="80" as="geometry" />
        </mxCell>
      </root>
    </mxGraphModel>
  </diagram>
</mxfile>
